<?xml version="1.0" encoding="UTF-8"?>
<!DOCTYPE svg PUBLIC "-//W3C//DTD SVG 1.1//EN" "http://www.w3.org/Graphics/SVG/1.1/DTD/svg11.dtd">
<!-- Creator: CorelDRAW (OEM Version) -->
<svg xmlns="http://www.w3.org/2000/svg" xml:space="preserve" width="506.052mm" height="505.791mm" version="1.1" style="shape-rendering:geometricPrecision; text-rendering:geometricPrecision; image-rendering:optimizeQuality; fill-rule:evenodd; clip-rule:evenodd"
viewBox="0 0 9819.17 9814.11"
 xmlns:xlink="http://www.w3.org/1999/xlink"
 xmlns:xodm="http://www.corel.com/coreldraw/odm/2003">
 <defs>
  <style type="text/css">
   <![CDATA[
    .fil0 {fill:#2C66B0}
    .fil1 {fill:#FEFEFE}
   ]]>
  </style>
 </defs>
 <g id="Layer_x0020_1">
  <metadata id="CorelCorpID_0Corel-Layer"/>
  <path class="fil0" d="M1097.85 5.52c-192.85,21.26 -305.91,37.25 -481.22,130.12 -264.28,140.01 -468.04,379.28 -558.03,667.05 -60.41,193.18 -54.8,339.39 -54.88,559.75 -0.16,408.19 2.68,816.88 0.74,1225.03l0 5516.05c0.74,197.63 -11.01,421.13 0.92,615.32 31.48,512.38 357.23,885.64 796.95,1035.26 174.11,59.24 359.69,55.78 562.11,56.04 817.81,1.04 1639.73,6.94 2457.13,-0.43 1420.88,-12.81 2865.03,4.32 4291.43,-0.09 195.92,-0.61 424.55,11.73 616.26,-2.07 363.89,-26.2 638.02,-195.08 815.78,-408.82 91.19,-109.65 170.95,-240.09 217.19,-393.35 59.03,-195.66 53.71,-337.26 53.69,-559.67 -0.07,-816.7 -0.16,-1633.36 0.02,-2450.06l0.07 -3675.09c-0.07,-205.16 1.04,-410.86 -0.02,-615.94 -2.93,-568.09 76.57,-1009.86 -408.68,-1431 -96.88,-84.08 -249.52,-173.8 -392.78,-216.64 -197.23,-58.98 -336.88,-55.38 -559.31,-55.33 -819.06,0.18 -1638.07,0.19 -2457.13,0.04l-3675.43 -0.03c-116.5,0.15 -1137.59,-5.75 -1224.8,3.86z"/>
  <path class="fil1" d="M5203.32 4286.52c0.8,-137.41 -1.77,-275.02 0.04,-412.43 3.04,-230.49 17.96,-208.73 -211.41,-207.29l-1040.35 -0.49c-87.79,-0.92 -128,-7.09 -130.84,84.24 -4.22,135.88 -0.6,281.1 0.04,417.82 5.91,1250.38 -0.44,2506.02 0.03,3757.21 0.03,68.44 -0.03,136.87 0,205.31 0.08,216.49 -41.52,177.83 459.29,173.28l835.01 1.66c181.64,1.71 150.46,-6.34 150.57,-270.75 0.23,-556.58 -0.93,-1113.26 -0.93,-1669.87 0,-542.85 -40.03,-1082.69 301.84,-1369.04 154.18,-129.14 408.78,-197.21 657.63,-179.28 539.6,38.87 655.9,547.07 660.61,1000.82 7.88,759.63 -0.27,1531.17 0.67,2292.65 0.07,57.11 -15.94,163.03 28.36,186.42 28.09,14.83 1064.04,6.98 1247,8.8 189.39,1.88 165.06,2.87 164.11,-256.81 -2.03,-555.19 -5.06,-1114.97 0.83,-1669.87 11.38,-1071.31 33.3,-2146.18 -739.58,-2600.8 -368.16,-216.55 -983.33,-284.54 -1404.13,-184.58 -290.26,68.95 -602.34,256.82 -782.39,469.27 -27.16,32.05 -171.59,211.31 -196.42,223.73z"/>
  <path class="fil1" d="M1506.16 3671.87c-54.44,17.46 -40.63,84.6 -40.62,147.46l-0.75 4373.16c-0.1,76.46 -3.22,110.01 77.26,113.4 136.45,5.75 425.2,-2.24 575.26,-2.24 96.69,0 716.79,10.67 755.87,-5.97 48.41,-20.62 38.37,-92.31 37.8,-146.26l-0.06 -4373.2c-0.17,-139.73 -39.45,-113.42 -266.59,-111.13 -180.73,1.82 -1098.26,-8.02 -1138.17,4.78z"/>
  <path class="fil1" d="M2119.99 1361.33c-128.96,12.97 -220.51,41.65 -320.07,94.19 -102.44,54.06 -165.61,113.49 -232.95,184.65 -127.84,135.1 -230.73,364.53 -209.94,625.9 34.24,430.58 431.72,801.1 911.01,757.49 437.18,-39.78 790.88,-426.53 753.95,-908.58 -32.34,-422.24 -430.41,-801.05 -901.99,-753.64z"/>
 </g>
</svg>
