<svg
    xmlns="http://www.w3.org/2000/svg"
    fill-rule="evenodd"
    clip-rule="evenodd"
    viewBox="0 0 50230.51 50230.3"
>
    <circle class="logo-ring" cx="25115.26" cy="25115.07" r="24580.94" />
    <circle class="logo-disc" cx="25115.26" cy="25115.05" r="23149.48" />
    <path class="logo-motif" d="M9692.72 35227.78c946.66,-1395.49 6852.31,-1216.09 8815.25,-1149.83 1281.5,43.33 2467.51,45.01 3042.74,454.3 -2855.13,1485.72 -5052.37,2841.25 -9258.19,2101.75 -1168.76,-205.7 -2292.73,-441.68 -2599.8,-1406.22zm28577.17 -9935.01l-542.21 5165.94c-559.88,-569.13 -1048.25,-1655.87 -1503.39,-2263.7 -780.72,-1042.78 -1337.02,-1407.27 -1719.39,-1999.96l3764.99 -902.28zm-11265.93 -1204.31c1763.56,40.8 4576.62,809.11 5410.55,1853.36 -1798.26,219.37 -3423.21,296.13 -5332.1,84.13l-78.45 -1937.49zm-2513.57 989.15c436.21,-669.25 872.42,-755.69 1749.25,-897.24l-12.41 1653.98c-782.61,-123.88 -1342.91,-146.81 -1736.84,-756.74zm13896.23 -429.27c-6775.12,1809.83 -3238.13,837.72 -8368.74,-753.38 -1079.59,-334.83 -2098.81,-361.97 -3056.62,-650.11l-214.74 -5290.67c-17.67,-931.94 100.11,-1249.74 -225.26,-1834.43 -549.78,417.07 -330.84,1636.52 -323.06,3081.65l45.22 4095.19c-1180.33,708.79 -2579.61,540.32 -2560.26,2137.3 599.63,679.34 1418.42,862.32 2500.11,1078.32l173.1 8373.15 -3034.96 -904.18c337.99,-569.34 1095.78,-1299.37 973.37,-2258.44 -592.27,-4646.45 -13006.14,-3410.59 -17091.24,-6737.05 -2650.7,-2158.54 -1546.08,-6014.18 3209.31,-7652.59 3584.74,-1235.22 8126.03,-1561.22 12086.19,-1028.69 -84.13,465.65 -301.39,-57.84 -732.13,858.12 875.57,-171.83 1527.36,-348.29 1515.37,-1166.45 -2694.65,-1070.75 -15898.92,-1088.84 -17802.97,4757.5 -1957.68,6011.44 6100.62,6968.83 10578.39,7682.88 2304.72,367.43 5627.39,995.46 6938.54,2301.77 885.46,882.09 456.61,2533.55 -579.65,3051.15 -455.35,227.36 -9333.7,-970.01 -12484.96,351.87 -540.95,226.73 -901.65,717.62 -662.94,1565.64 428.01,1521.26 3771.93,1822.24 5143.65,1822.24 5521.6,0 7124.26,-3271.15 9309.72,-2727.88 809.74,201.28 2427.54,839.82 3075.76,871.37l209.9 -8859c778.61,-176.04 2175.16,8.62 3075.76,-33.02 1119.34,-51.53 2132.46,-284.57 3204.48,-335.67 1222.4,813.95 2506.84,2250.24 3297.44,3704.83 1347.33,2479.28 921,4469.99 2222.69,4752.45 282.67,-516.55 -389.94,-2852.4 -389.94,-4126.32 0,-1008.71 77.19,-2046.65 200.23,-3030.96 442.1,-3540.15 394.14,-2478.02 2582.76,-3317.63 731.5,-280.78 273.21,78.03 614.35,-418.12 -616.88,-376.27 -1814.03,282.67 -2637.45,380.26 136.08,-1296.64 1410,-7815.38 2109.96,-9120.01 564.51,-1052.66 550.62,88.76 565.14,-1034.37 -877.47,136.5 -1179.7,953.81 -1494.76,1893.75 -826.36,2466.24 -1340.6,6644.72 -1971.77,8519.54z" />
</svg>
