<?xml version="1.0" encoding="UTF-8"?>
<!DOCTYPE svg PUBLIC "-//W3C//DTD SVG 1.1//EN" "http://www.w3.org/Graphics/SVG/1.1/DTD/svg11.dtd">
<!-- Creator: CorelDRAW (OEM Version) -->
<svg xmlns="http://www.w3.org/2000/svg" xml:space="preserve" width="58.534mm" height="71.1333mm" version="1.1" style="shape-rendering:geometricPrecision; text-rendering:geometricPrecision; image-rendering:optimizeQuality; fill-rule:evenodd; clip-rule:evenodd"
viewBox="0 0 1468.73 1784.87"
 xmlns:xlink="http://www.w3.org/1999/xlink"
 xmlns:xodm="http://www.corel.com/coreldraw/odm/2003">
 <defs>
  <style type="text/css">
   <![CDATA[
    .str0 {stroke:#373435;stroke-width:4.25;stroke-miterlimit:2.61313}
    .fil3 {fill:none}
    .fil2 {fill:#373435}
    .fil0 {fill:#5C5C5C}
    .fil1 {fill:white}
   ]]>
  </style>
 </defs>
 <g id="Layer_x0020_1">
  <metadata id="CorelCorpID_0Corel-Layer"/>
  <path class="fil0" d="M273.46 823.37c6.66,15.14 19.17,137.67 21.44,163.63 5.24,60.15 8.81,117.95 6.05,178.57 -6.65,146.17 -18.09,288.61 -29.02,433.88 -4.09,54.31 -8.79,49.07 19.73,68.42 125.22,84.93 285.92,117.76 442.81,116.98 159.41,-0.8 314.21,-30.2 442.41,-115.27 32.02,-21.24 24.89,-16.66 21.72,-69.6 -12.1,-202.13 -42.48,-414.69 -22.23,-614.98 5.27,-52.17 10.27,-117.09 20.35,-166.88 11.01,64.7 17.31,137.59 25.79,203.56 2.04,15.88 5.59,34.75 6,50.56 0.54,20.35 -3.92,31.34 1.08,52.94 7.61,32.89 4.93,77.25 5,112.62 0.16,76.69 0.45,152.81 1.41,229.44 0.44,35.26 4.87,78.85 1.86,112.61 -3.2,35.91 -5.5,72.68 -7.72,108.63 -1.89,30.7 -7.71,40.79 61.09,52.72 32.33,5.6 75.89,8.71 108.15,4 34.25,-5 27.11,-18.91 32.64,-82.54 4.24,-48.78 3.74,-54.97 12.48,-103.74 11.58,-64.59 12.96,-149.71 15.52,-217.05 2.78,-73.25 7.41,-147.25 8.65,-220.88 1.47,-86.96 -26.49,-327.13 -38.46,-423.34 -15.65,-125.8 -32.15,-275.86 -85.44,-378.1 -30.46,-58.44 -66.58,-71.06 -134.02,-97.69 -72.24,-28.53 -153.71,-58.59 -224.65,-91.8 -11.71,-5.48 -10.09,-3.4 -15.87,-13.87 -13.85,-25.05 -26.53,-49.7 -41.17,-75.66 -8,-14.19 -14.2,-19.73 -32.32,-25.23 -61.17,-18.56 -201.23,-18.06 -266.46,-9.86 -97.49,12.25 -78.66,18.59 -127.5,104.21 -12.83,22.49 -3.81,12.77 -31.44,25.89 -59.24,28.13 -146.08,62.5 -206.3,84.87 -68.99,25.62 -104.55,38.04 -137.23,94.3 -51.21,88.15 -72.7,259.52 -87.36,375.86 -8.77,69.59 -17.24,139 -23.53,208.66 -6.09,67.37 -18.11,145.16 -16.82,213.31 1.4,74.16 6.08,148.05 8.42,222.03 2.13,67.3 3.98,153.12 14.13,217.74 2.62,16.67 7.06,31.62 8.17,48.82 1.13,17.52 2.58,35.58 4.27,53.1 1.7,17.68 2.87,35.39 4.39,53.12 2,23.42 0.44,32.07 23,36.71 31.21,6.41 74.34,2.75 105.7,-1.63 16.07,-2.25 32.38,-5.98 46.84,-10.68 21.01,-6.83 24.89,-10.47 23.71,-34.7 -1.72,-35.27 -5,-71.21 -7.78,-106.49 -2.98,-37.79 0.92,-72.59 1.41,-110.53 0.47,-36.53 -0.03,-321.94 4.45,-342.48 4.94,-22.67 6.18,-28.15 4.51,-52.66 -1.47,-21.54 15.07,-131.31 18.57,-158.28 2.5,-19.23 8.81,-91.41 13.57,-103.19z"/>
  <path class="fil1" d="M848.96 250.37c-7.93,2.26 -21.29,11.46 -32.43,15.9 -18.5,7.36 -13.63,8.8 -20.35,28.56 -8.21,24.14 -16.72,53.91 -19.89,80.31 -3.57,29.66 -1.71,66.89 -1.71,97.86 0.01,33.28 0.06,66.57 0.03,99.85 -0.12,133.12 -0.32,266.28 -0.01,399.4 0.63,265.34 2.81,532.9 -0.1,798.05 76.85,1.51 164.56,-15.61 233.26,-36.22 56.93,-17.07 144.92,-58.61 180.5,-88.7 -1.93,-58.11 -8.76,-119.37 -12.99,-177.74 -7.68,-105.93 -21.16,-261.14 -19.83,-363.69 1.97,-151.71 41.63,-363.1 64.89,-512.72 8.4,-54.08 16.53,-109.85 26.99,-164.13 5.15,-26.7 10.09,-52.4 16.56,-79.2 6.14,-25.4 14.96,-51.7 21.06,-76.71 -17.68,-15.61 -185.45,-78.62 -230.49,-96.7 -16.54,-6.64 -64.41,-30.73 -77.06,-32.5 2.24,52.78 -16.81,125.32 -32.28,172.06 -11.58,35.01 -17.03,24.46 -35.48,4.98l-47.88 -54.09c-5.41,-5.38 -8.51,-9.14 -12.81,-14.57z"/>
  <path class="fil1" d="M185.79 268.59c0.45,17.14 19.17,76.24 23.89,97.92 7.19,33 13.87,67.59 19.66,102.01 11.73,69.71 22.66,139.67 34.66,209.2 53.47,309.79 62.64,401.98 37.6,706.93 -3.57,43.48 -6.66,87.45 -9.69,130.95 -2.87,41.3 -9.61,89.88 -9.72,130.3 26.31,16.72 51.51,33.21 84.21,49.08 90.5,43.91 223.96,80.46 324.54,74.95 3.38,-114.82 -0.39,-264.08 0.43,-383.41 1.92,-278.24 0.31,-566.73 -0.06,-845.53 -0.06,-47.27 -4.52,-147.41 7.93,-181.72 5.12,-14.1 11.8,-26.02 17.89,-37.42 9.27,-17.39 0.3,-22.14 -7.15,-39.12l-45.2 -10.04c5.06,26.91 22.86,54.59 26.42,81.03 -7.21,-20.67 -15.26,-41.63 -22.37,-63.18 -5.77,-17.49 -1.61,-17.46 -18.26,-24.66 -10.01,-4.33 -21.95,-10.13 -28.68,-14.9 -9.16,6.92 -13.23,12.28 -20.26,21.21 -4.08,5.18 -6.05,6.02 -10.4,10.8 -4.46,4.89 -5.21,6.79 -10.8,12.59l-21.24 23.36c-6.23,7.02 -12.24,19.87 -24.4,16.7 -6.49,-2.64 -4.67,-3.34 -10.13,-18.4 -2.96,-8.16 -5.24,-14.54 -7.35,-22.33 -4.18,-15.44 -8.64,-30.58 -12.41,-46.99 -7.69,-33.44 -14.47,-70.64 -13.11,-106.12 -11.51,2.05 -59.75,25.99 -75.27,32.63 -24.49,10.49 -51.37,21.08 -76.89,31.26l-116.12 45.35c-12.56,5.06 -26.19,13.03 -37.69,17.57z"/>
  <path class="fil1" d="M215.5 1566.85c7.4,-116.01 5.28,-253.68 6.01,-373.66 0.09,-14.72 -0.89,-32.46 0.77,-46.8 1.7,-14.69 7.03,-27.04 7.39,-42.36 0.43,-18.3 -2.65,-28.65 -0.04,-48.46 8.62,-65.32 39.14,-266.22 32.95,-304.14 -5.15,-31.52 -11.95,-47.66 -22.23,-75.51 -7.47,-20.24 -20.51,-53.95 -23.74,-73.02l38.77 97.83c0.78,-53.95 -36.6,-264.28 -49.7,-325.63 -3.54,-16.57 -7.71,-33.43 -11.82,-49.93 -4.11,-16.49 -10.45,-34.15 -13.58,-50.05 -17.11,7.19 -36.93,36.86 -47.95,58.93 -11.73,23.5 -21.17,50.44 -28.79,77.25 -15.65,55.08 -27.04,117.9 -35.51,176.51 -21.92,151.71 -40.11,322.97 -53.35,477.83 -3.04,35.64 -0.31,69.17 0.71,104.56 2.36,81.56 10.33,334.52 23.89,401.66 3.17,15.7 0.83,15.62 36.63,15.36 43.72,-0.31 99.55,-6.45 139.59,-20.38z"/>
  <path class="fil1" d="M1214.05 699.43c5.8,-6.35 9.2,-19.39 12.19,-27.77 6.67,-18.66 30.42,-73.57 31.91,-83.14 -4.33,34.5 -42.8,114.94 -49.21,155.04 -7.28,45.56 8.42,132.09 14.61,181.61l17.07 136.23c1.93,18.84 -2.75,35.21 -0.2,52.97 2.39,16.72 6.53,25.42 6.95,44.82 3.03,139.29 -2.41,264.65 5.42,408.16 55.63,13.52 110.07,24.48 172.05,18.34 17.36,-47.74 24.34,-285.68 26.41,-349.88 1.94,-60.03 7.31,-120.5 2.44,-180.52 -4.65,-57.33 -10.74,-114.63 -16.32,-172.01 -11.84,-121.83 -41.98,-445.51 -103.16,-555.38 -10.6,-19.04 -27.64,-44.52 -43.15,-52.96 -0.29,0.45 -0.69,0.62 -0.8,1.38l-1.48 2.84c-28.86,68.01 -71.66,365.67 -74.75,420.27z"/>
  <path class="fil1" d="M699.7 1769.75c13.27,3.68 55.27,1.83 70.76,0.8 2.59,-61.31 -0.23,-126.71 0.18,-188.59 2.07,-316.88 -0.08,-638.5 0.02,-956 0.02,-59.85 -4.76,-227.87 7.4,-279.58 6.14,-26.09 16.35,-50.22 22.17,-73.38 -5.84,0.68 -34.37,6.5 -40.61,8.22 -9.2,2.53 -11.35,12.69 -21.62,29.58 -12.13,19.93 -25.91,41.36 -32.31,67.69 -10.21,42.01 -5.89,143.98 -6.13,192.25l-0.27 798.79c-0.09,66.47 -0.5,133.26 -0.01,199.7 0.47,64.6 -3.27,137.13 0.42,200.53z"/>
  <path class="fil1" d="M594.23 111.85c4.78,17.51 42.97,72.09 55.36,82.8 5.89,5.09 5.5,4.7 10.58,10.6 10.91,12.68 30.81,19.16 44.23,36.56 4.96,6.42 23.28,46.8 25.46,55.44 0.42,-0.37 1.04,-1.54 1.22,-1.17l14.49 -24.34c5.08,-9.66 8.72,-17.96 14.55,-25.85 19.74,-26.7 28.26,-20.84 45.7,-37.22 3.69,-3.46 5.45,-6.78 8.95,-10.15 15.01,-14.48 14.87,-13.54 29.61,-34.12 9.82,-13.71 24.46,-34.64 30.77,-52.54 -34.02,-18.71 -244.71,-17.46 -280.9,0z"/>
  <path class="fil1" d="M43.46 1591.91c0.92,19.02 7.49,127.56 13.3,136.63 31.37,16.4 144.56,-0.52 169.73,-16.34l-9.82 -139.41c-28.09,6.44 -49.66,13.11 -80.63,16.43 -32.72,3.51 -59.52,4.29 -92.58,2.68z"/>
  <path class="fil1" d="M576.92 28.4c-6.61,31.19 4.2,51.11 13.07,76.98 20.81,-1.6 44.99,-7.8 68.11,-9.99 25.86,-2.44 50.37,-4.16 76.36,-4.22 65.63,-0.15 85.91,6.61 144.32,14.03 8.57,-22.36 19.57,-48.56 14.89,-76.37 -62.32,-20.87 -253.97,-20.6 -316.75,-0.43z"/>
  <path class="fil1" d="M1412.96 1726.7l11.93 -134.33c-51.75,-2.86 -77.51,2.53 -134.66,-9.52 -12.03,-2.54 -28.34,-8.45 -38.82,-9.36l-8.74 121.33c-1.66,21.04 0.06,20.23 18.04,25.67 23.24,7.03 121.1,23.14 148.3,9.04 3.08,-1.6 2.25,-1.23 3.95,-2.82z"/>
  <path class="fil1" d="M539.86 321.04l50.03 -56.35c18.37,-21.37 37.33,-45.65 61.6,-48.5 -10.33,-15.66 -31.76,-31.56 -58.89,-77.3 -14.85,-25.04 -35.15,-70.47 -28.46,-104.95 -9.66,3.04 -13.34,15.37 -19.39,26.29 -6.36,11.48 -10.58,20.32 -17.14,31.73 -15.23,26.53 -25.5,35.25 -22.53,73.09 3.83,48.93 18.21,114.47 34.78,156z"/>
  <path class="fil1" d="M816.83 213.5l9.68 4.3c23.12,7.55 32.82,26.32 51.59,45.76 16.14,16.72 29.07,35.48 51.16,57.59 15.91,-40.48 30.62,-107.19 34.14,-153.98 3.54,-47.04 -9.82,-52.48 -36.62,-103.21 -6.17,-11.68 -8.99,-22.5 -20.73,-29.5 6.63,32.87 -15.98,80.88 -29.53,104.66 -12.2,21.41 -45.37,67.33 -59.7,74.37z"/>
  <path class="fil1" d="M757.12 278.5c25.67,-4.48 71.14,-18.18 85.73,-32.81 -2.95,-5.03 -12.69,-14.56 -19.7,-18.59 -11.1,-6.38 -20.02,0.1 -29.64,5.44 -15.52,8.61 -30.01,25.6 -36.4,45.97z"/>
  <path class="fil1" d="M625.92 245.69c5.9,6.01 18.86,12.75 27.19,15.41 -2.07,-15.15 4.18,-27.6 19.43,-19.46 7.94,4.24 12.59,13.57 3.31,24.23 -2.73,3.14 -0.43,-0.13 -3.52,3.84l35.01 8.98c-7.33,-24.78 -14.24,-34.7 -32.19,-45.87 -9.08,-5.65 -16.66,-12.4 -27.94,-6.55 -6.88,3.57 -18.09,14.56 -21.29,19.43z"/>
  <g>
   <path class="fil2" d="M972.22 475.01l0 1110.94 0 -1110.94zm0 1165.03l4.25 -27.04 4.25 -27.04 -8.49 0 -0.01 0 -8.49 0 4.25 27.04 4.25 27.04zm0 -1219.99l-4.25 27.04 -4.25 27.04 8.49 0 8.49 0 -4.25 -27.04 -4.25 -27.04z"/>
   <path id="_1" class="fil3 str0" d="M972.22 475.01l0 1110.94m0 54.09l4.25 -27.04 4.25 -27.04 -8.49 0 -0.01 0 -8.49 0 4.25 27.04 4.25 27.04zm0 -1219.99l-4.25 27.04 -4.25 27.04 8.49 0 8.49 0 -4.25 -27.04 -4.25 -27.04z"/>
  </g>
  <line class="fil3 str0" x1="1069.7" y1="722.69" x2="409" y2= "722.69" />
  <polygon class="fil2 str0" points="1121.67,722.69 1094.62,718.44 1067.58,714.2 1067.58,722.69 1067.58,731.18 1094.62,726.93 "/>
  <polygon class="fil2 str0" points="357.18,722.69 384.22,726.93 411.27,731.18 411.27,722.69 411.27,714.2 384.22,718.44 "/>
 </g>
</svg>
