<svg xmlns="http://www.w3.org/2000/svg" xmlns:xlink="http://www.w3.org/1999/xlink" xmlns:xodm="http://www.corel.com/coreldraw/odm/2003" xml:space="preserve" width="106px" height="106px" fill-rule="evenodd" clip-rule="evenodd" viewBox="0 0 9.03 9.02"> <g id="Layer_x0020_1"> <metadata id="CorelCorpID_0Corel-Layer"></metadata> <g id="_2379629423488"> <circle fill="#FEFEFE" cx="4.52" cy="4.51" r="4.51"></circle> <path fill="#2E5495" d="M0 4.2l0 0.61c0.03,0.05 0.02,0.05 0.02,0.12 0.09,1.52 1.19,3.04 2.58,3.67 0.44,0.2 1.12,0.42 1.7,0.42l-0.01 -3.19c-0.13,0 -0.27,0 -0.4,0 -0.47,0 -0.35,0.11 -0.35,-1.06 -0.01,-0.32 0.01,-0.22 0.75,-0.23 0.08,-0.81 -0.16,-1.27 0.29,-1.89 0.13,-0.18 0.37,-0.36 0.65,-0.45 0.29,-0.1 0.67,-0.07 1,-0.07 0.88,0 0.77,-0.05 0.77,0.32l0 0.82c0,0.1 -0.01,0.15 -0.11,0.15 -0.29,0.02 -0.82,-0.08 -0.98,0.12 -0.11,0.13 -0.08,0.27 -0.08,0.46 0,0.17 -0.01,0.37 0,0.53l0.91 0.01c0.16,0 0.15,-0.02 0.24,0.05l-0.09 1.12c-0.01,0.12 -0.06,0.12 -0.18,0.12l-0.88 0 0 3c0.17,-0.04 0.44,-0.15 0.59,-0.22 1.22,-0.56 2.14,-1.67 2.48,-3.03 0.23,-0.92 0.13,-1.92 -0.19,-2.73 -0.24,-0.61 -0.51,-0.98 -0.91,-1.44 -0.13,-0.14 -0.25,-0.23 -0.41,-0.38 -0.51,-0.46 -1.5,-0.9 -2.17,-0.98 -1.07,-0.12 -1.82,0 -2.67,0.4 -0.71,0.33 -1.31,0.88 -1.71,1.44 -0.22,0.3 -0.41,0.66 -0.55,1.03 -0.11,0.29 -0.19,0.62 -0.24,0.94 -0.01,0.08 -0.01,0.3 -0.05,0.34z"></path> </g> </g> </svg>