<svg xmlns="http://www.w3.org/2000/svg" xmlns:xlink="http://www.w3.org/1999/xlink" xmlns:xodm="http://www.corel.com/coreldraw/odm/2003" xml:space="preserve" width="90px" height="90px" fill-rule="evenodd" clip-rule="evenodd" viewBox="0 0 5.32 5.32"> <g id="Layer_x0020_1"> <metadata id="CorelCorpID_0Corel-Layer"></metadata> <g id="_2380553288176"> <path fill="#FEFEFE" fill-rule="nonzero" d="M2.66 0c-0.72,0 -0.81,0 -1.1,0.02 -0.28,0.01 -0.47,0.05 -0.64,0.12 -0.18,0.07 -0.33,0.16 -0.47,0.31 -0.15,0.14 -0.24,0.29 -0.31,0.47 -0.07,0.17 -0.11,0.36 -0.12,0.64 -0.02,0.29 -0.02,0.38 -0.02,1.1 0,0.72 0,0.81 0.02,1.1 0.01,0.28 0.05,0.47 0.12,0.64 0.07,0.18 0.16,0.32 0.31,0.47 0.14,0.15 0.29,0.24 0.47,0.31 0.17,0.06 0.36,0.11 0.64,0.12 0.29,0.02 0.38,0.02 1.1,0.02 0.72,0 0.81,0 1.1,-0.02 0.28,-0.01 0.47,-0.06 0.64,-0.12 0.18,-0.07 0.32,-0.16 0.47,-0.31 0.15,-0.15 0.24,-0.29 0.31,-0.47 0.06,-0.17 0.11,-0.36 0.12,-0.64 0.02,-0.29 0.02,-0.38 0.02,-1.1 0,-0.72 0,-0.81 -0.02,-1.1 -0.01,-0.28 -0.06,-0.47 -0.12,-0.64 -0.07,-0.18 -0.16,-0.33 -0.31,-0.47 -0.15,-0.15 -0.29,-0.24 -0.47,-0.31 -0.17,-0.07 -0.36,-0.11 -0.64,-0.12 -0.29,-0.02 -0.38,-0.02 -1.1,-0.02l0 0z"></path> <path fill="#A96EAE" fill-rule="nonzero" d="M2.66 0c-0.72,0 -0.81,0 -1.1,0.02 -0.28,0.01 -0.47,0.05 -0.64,0.12 -0.18,0.07 -0.33,0.16 -0.47,0.31 -0.15,0.14 -0.24,0.29 -0.31,0.47 -0.07,0.17 -0.11,0.36 -0.12,0.64 -0.02,0.29 -0.02,0.38 -0.02,1.1 0,0.72 0,0.81 0.02,1.1 0.01,0.28 0.05,0.47 0.12,0.64 0.07,0.18 0.16,0.32 0.31,0.47 0.14,0.15 0.29,0.24 0.47,0.31 0.17,0.06 0.36,0.11 0.64,0.12 0.29,0.02 0.38,0.02 1.1,0.02 0.72,0 0.81,0 1.1,-0.02 0.28,-0.01 0.47,-0.06 0.64,-0.12 0.18,-0.07 0.32,-0.16 0.47,-0.31 0.15,-0.15 0.24,-0.29 0.31,-0.47 0.06,-0.17 0.11,-0.36 0.12,-0.64 0.02,-0.29 0.02,-0.38 0.02,-1.1 0,-0.72 0,-0.81 -0.02,-1.1 -0.01,-0.28 -0.06,-0.47 -0.12,-0.64 -0.07,-0.18 -0.16,-0.33 -0.31,-0.47 -0.15,-0.15 -0.29,-0.24 -0.47,-0.31 -0.17,-0.07 -0.36,-0.11 -0.64,-0.12 -0.29,-0.02 -0.38,-0.02 -1.1,-0.02l0 0zm0 0.48c0.71,0 0.79,0 1.07,0.01 0.26,0.02 0.4,0.06 0.5,0.1 0.12,0.04 0.21,0.1 0.3,0.2 0.1,0.09 0.15,0.18 0.2,0.3 0.04,0.09 0.08,0.24 0.09,0.49 0.02,0.29 0.02,0.37 0.02,1.08 0,0.71 0,0.79 -0.02,1.07 -0.01,0.26 -0.05,0.4 -0.09,0.5 -0.05,0.12 -0.1,0.21 -0.2,0.3 -0.09,0.1 -0.18,0.15 -0.3,0.2 -0.1,0.04 -0.24,0.08 -0.5,0.09 -0.28,0.02 -0.36,0.02 -1.07,0.02 -0.71,0 -0.79,0 -1.08,-0.02 -0.25,-0.01 -0.4,-0.05 -0.49,-0.09 -0.12,-0.05 -0.21,-0.1 -0.3,-0.2 -0.1,-0.09 -0.16,-0.18 -0.2,-0.3 -0.04,-0.1 -0.08,-0.24 -0.1,-0.5 -0.01,-0.28 -0.01,-0.36 -0.01,-1.07 0,-0.71 0,-0.79 0.01,-1.08 0.02,-0.25 0.06,-0.4 0.1,-0.49 0.04,-0.12 0.1,-0.21 0.2,-0.3 0.09,-0.1 0.18,-0.16 0.3,-0.2 0.09,-0.04 0.24,-0.08 0.49,-0.1 0.29,-0.01 0.37,-0.01 1.08,-0.01z"></path> <path fill="#AB74B0" fill-rule="nonzero" d="M2.66 3.55c-0.49,0 -0.89,-0.4 -0.89,-0.89 0,-0.49 0.4,-0.89 0.89,-0.89 0.49,0 0.89,0.4 0.89,0.89 0,0.49 -0.4,0.89 -0.89,0.89zm0 -2.26c-0.75,0 -1.37,0.62 -1.37,1.37 0,0.75 0.62,1.36 1.37,1.36 0.75,0 1.36,-0.61 1.36,-1.36 0,-0.75 -0.61,-1.37 -1.36,-1.37z"></path> <path fill="#AB74B0" fill-rule="nonzero" d="M4.4 1.24c0,0.18 -0.14,0.32 -0.32,0.32 -0.18,0 -0.32,-0.14 -0.32,-0.32 0,-0.18 0.14,-0.32 0.32,-0.32 0.18,0 0.32,0.14 0.32,0.32z"></path> </g> </g> </svg>