<?xml version="1.0" encoding="UTF-8"?>
<!DOCTYPE svg PUBLIC "-//W3C//DTD SVG 1.1//EN" "http://www.w3.org/Graphics/SVG/1.1/DTD/svg11.dtd">
<!-- Creator: CorelDRAW (OEM Version) -->
<svg xmlns="http://www.w3.org/2000/svg" xml:space="preserve" width="32.9802mm" height="33.689mm" version="1.1" style="shape-rendering:geometricPrecision; text-rendering:geometricPrecision; image-rendering:optimizeQuality; fill-rule:evenodd; clip-rule:evenodd"
viewBox="0 0 7.06 7.21"
 xmlns:xlink="http://www.w3.org/1999/xlink"
 xmlns:xodm="http://www.corel.com/coreldraw/odm/2003">
 <defs>
  <style type="text/css">
   <![CDATA[
    .fil0 {fill:#FEFEFE}
   ]]>
  </style>
 </defs>
 <g id="Layer_x0020_1">
  <metadata id="CorelCorpID_0Corel-Layer"/>
  <g id="_2336328839968">
   <path class="fil0" d="M3.2 2.07c-0.02,-0.07 0.03,-0.12 0.08,-0.15 0.06,-0.03 0.14,-0.05 0.18,0.01 -0.06,0.03 -0.1,0 -0.17,0.04 -0.07,0.04 -0.02,0.05 -0.1,0.09zm-2.31 1.5c0.01,0.04 -0.06,0.44 -0.06,0.56 -0,0.2 0.01,0.4 0.04,0.6 0.18,0.94 0.8,1.79 1.65,2.19 1.27,0.61 3.03,0.33 3.95,-1.24 -1.15,1.33 -3.83,1.21 -3.86,-0.83 -0,-0.34 0.07,-0.59 0.23,-0.86 0.02,-0.04 0.04,-0.07 0.07,-0.1 0.04,-0.05 0.04,-0.06 0.1,-0.09 0.03,0.04 0.2,0.26 0.3,0.42l0.25 0.46c0.05,-0.09 0.12,-0.18 0.17,-0.3 0.05,-0.1 0.09,-0.23 0.11,-0.34 0.08,-0.36 0,-0.54 -0,-0.86 0.4,-0.14 1.18,-0.69 1.43,-1.02 0.25,-0.33 0.22,-0.67 -0.33,-0.61 -0.35,0.04 -0.63,0.17 -0.93,0.28 -0.11,0.05 -0.04,0 -0.05,-0.01 0.01,-0.01 0.05,-0.02 0.05,-0.02 0.13,-0.09 0.26,-0.14 0.39,-0.22 -0.19,-0.2 -0.81,-0.28 -1.15,-0.25 -0.77,0.07 -1.33,0.46 -1.77,1.03 -0.29,0.37 -0.31,0.51 -0.51,0.87l-0.09 0.34z"/>
   <path class="fil0" d="M1.32 0.56c0.02,0.07 0.41,0.59 0.46,0.64 0.1,-0.04 0.3,-0.33 0.95,-0.46 -0.01,-0.08 -0.23,-0.66 -0.28,-0.73 -0.33,-0.03 -0.95,0.27 -1.13,0.56z"/>
   <path class="fil0" d="M1.76 1.53c0.39,0.09 1.31,-0.4 1.29,-0.67 -0.19,-0.11 -0.62,0.09 -0.79,0.17 -0.18,0.09 -0.56,0.3 -0.51,0.5z"/>
   <path class="fil0" d="M6.05 2.89c0.11,0.21 0.48,0.06 0.34,-0.2 -0.11,-0.21 -0.47,-0.06 -0.34,0.2z"/>
   <path class="fil0" d="M6.71 3.57c0.11,0.19 0.44,0.04 0.32,-0.19 -0.11,-0.21 -0.45,-0.04 -0.32,0.19z"/>
   <path class="fil0" d="M4.02 1.82l0 -0.02c-0,0 -0.04,0.01 -0.05,0.02 0.01,0.01 -0.05,0.06 0.05,0.01z"/>
   <polygon class="fil0" points="5.62,6.24 5.62,6.23 5.59,6.28 "/>
   <path class="fil0" d="M1.1 2.68l-0.02 -0.02c-0.21,0.06 -0.48,0.22 -0.62,0.32 -0.08,0.06 -0.44,0.38 -0.46,0.5 0.1,0.03 0.38,-0.02 0.76,0.05 0.05,-0.29 0.2,-0.6 0.34,-0.86z"/>
   <path class="fil0" d="M5.86 6.09c0.74,-0.46 1.14,-1.54 0.71,-2.34 -0.62,-1.18 -1.98,-0.81 -2.11,0.1 -0.03,0.18 0.03,0.39 0.11,0.55 0.31,0.61 1.05,0.15 0.81,-0.35 -0.12,-0.24 -0.39,-0.3 -0.61,-0.2 -0.09,0.05 -0.11,0.1 -0.18,0.13 -0.09,-0.32 0.3,-0.71 0.77,-0.61 0.88,0.19 1.49,1.98 0.5,2.72z"/>
  </g>
 </g>
</svg>
