<svg xmlns="http://www.w3.org/2000/svg" xmlns:xlink="http://www.w3.org/1999/xlink" xmlns:xodm="http://www.corel.com/coreldraw/odm/2003" xml:space="preserve" width="99px" height="69px" fill-rule="evenodd" clip-rule="evenodd" viewBox="0 0 9.92 6.94"> <g id="Layer_x0020_1"> <metadata id="CorelCorpID_0Corel-Layer"></metadata> <g id="_2379716932800"> <path fill="#EE3C47" fill-rule="nonzero" d="M8.58 6.87c0,0 -2.71,0.07 -3.62,0.07 -0.9,0 -3.61,-0.07 -3.61,-0.07 -0.7,0 -1.27,-0.57 -1.27,-1.27 0,0 -0.08,-1.6 -0.08,-2.13 0,-0.53 0.08,-2.12 0.08,-2.12 0,-0.7 0.57,-1.27 1.27,-1.27 0,0 2.71,-0.08 3.61,-0.08 0.91,0 3.62,0.08 3.62,0.08 0.7,0 1.27,0.57 1.27,1.27 0,0 0.07,1.59 0.07,2.12 0,0.54 -0.07,2.13 -0.07,2.13 0,0.7 -0.57,1.27 -1.27,1.27z"></path> <polygon fill="#FEFEFE" points="4.01,5.02 4.01,1.92 6.52,3.47 "></polygon> </g> </g> </svg>