<svg xmlns="http://www.w3.org/2000/svg" width="32" height="32" xml:space="preserve" version="1.1" style="shape-rendering:geometricPrecision; text-rendering:geometricPrecision; image-rendering:optimizeQuality; fill-rule:evenodd; clip-rule:evenodd"
viewBox="0 0 1992.88 1377.39"
 xmlns:xlink="http://www.w3.org/1999/xlink"
 xmlns:xodm="http://www.corel.com/coreldraw/odm/2003">
 <defs>
  <style type="text/css">
   <![CDATA[
    .theme1_flags_en-svg-flags_en-svg-fil2 {fill:#012169}
    .theme1_flags_en-svg-flags_en-svg-fil4 {fill:#6175A2}
    .theme1_flags_en-svg-flags_en-svg-fil3 {fill:#C2A0B5}
    .theme1_flags_en-svg-flags_en-svg-fil0 {fill:#C8102E}
    .theme1_flags_en-svg-flags_en-svg-fil5 {fill:#D8586D}
    .theme1_flags_en-svg-flags_en-svg-fil1 {fill:white}
   ]]>
  </style>
 </defs>
 <g class="theme1_flags_en-svg-x" id="Layer_x0020_1">
  <metadata id="CorelCorpID_0Corel-Layer"/>
  <g class="theme1_flags_en-svg-x" id="_1470595502576">
   <path class="theme1_flags_en-svg-flags_en-svg-fil0" d="M-0 550.13l0 275.01 895.94 0.05 -0.15 548.89 198.58 0 0.04 -533.68c-0.01,-6.78 -0.84,-12.21 1.35,-15.24l894.86 0.46 0 -275.1c-224.16,0 -448.32,0 -672.48,0 -2.73,0 -218.69,2 -222.97,-1.22l-0.12 -549.28 -199.11 0.04 0 550.07 -895.94 0z"/>
   <path class="theme1_flags_en-svg-flags_en-svg-fil1" d="M1095.47 1375.97c4.73,1.63 60.72,1.66 65.4,0.03l0.13 -417.42c0.95,-2.81 0.31,-1.61 1.08,-1.63l602.65 416.26 3.55 2.59c7.47,2.7 180.5,0.79 210.81,0.95 2.03,0.01 4.77,0.29 6.65,0.21 7.57,-0.31 5.49,-2.01 5.81,-3.07 -5.22,0.02 -35.19,-22.65 -42.19,-27.48 -13.97,-9.63 -27.31,-18.79 -41.41,-28.53l-558.47 -385.71c-6.14,-4.24 -15.97,-10.06 -21,-14.83 12.76,-1.56 119.09,-0.7 142.96,-0.39 7.74,0.1 14.5,6.92 20.91,11.35l421.87 291.31c25.5,17.61 52.68,35.36 77.33,53.58 1.23,-6.49 2.03,-436.18 0.39,-447.09l-1.32 -0.48 -894.86 -0.46 -0.3 550.81z"/>
   <path class="theme1_flags_en-svg-flags_en-svg-fil1" d="M-0 103.06l0 51.3 440.2 303.53 -440.2 0.68 0 91.55 895.94 -0 0 -550.07 -66.37 0.26 -0.19 418.86 -605.83 -418.76 -222.61 -0.27 661.89 458.12 -144.83 0.36c-6.46,-0.48 -50.3,-32.87 -57.92,-38.14l-383.61 -264.92c-12.63,-8.73 -68.62,-48.52 -76.47,-52.49z"/>
   <path class="theme1_flags_en-svg-flags_en-svg-fil1" d="M-0 917.02l440.05 0.54 -440.05 303.68 0 155.52 1.03 -0.9c4.73,-7.31 80.4,-57.01 94.03,-66.44l547.16 -377.96c7.36,-5.09 16.56,-14.34 25.26,-14.5 47.07,-0.86 96.34,-1.08 143.37,0.15 -5.27,6.46 -32.66,23.36 -41.19,29.25l-620.58 429.36c6.01,2.22 68.1,2.23 74.11,0.02 5.53,-6.2 28.77,-20.56 37.18,-26.38l549.05 -379.25c6.16,-4.25 13.79,-10.45 20.15,-13.51l-0.31 419.27c5.27,1.95 60.76,2.03 66.39,0.23l0.15 -2.01 0.15 -548.89 -895.94 -0.05 0 91.88z"/>
   <path class="theme1_flags_en-svg-flags_en-svg-fil1" d="M1095.17 549.3l895.68 0 -0.24 -90.72 -439.78 -0.49 440.04 -303.96c1.15,-7.2 1.07,-145.05 -0.12,-153.25 -7.22,2.78 -87.09,59.66 -96,65.81l-523.37 361.47c-8.06,5.57 -15.85,10.95 -23.82,16.45 -7.87,5.44 -15.71,14.02 -25.61,14.02 -25.55,0.01 -125.01,1.65 -142.13,-0.69l661.83 -457.74 -74.2 0.2 -606.05 418.61 -0 -418.74 -66.36 -0.25 0.12 549.28z"/>
   <polygon class="theme1_flags_en-svg-flags_en-svg-fil2" points="829.58,0.32 223.55,0.41 829.38,419.18 "/>
   <polygon class="theme1_flags_en-svg-flags_en-svg-fil2" points="1767.46,0.4 1161.41,0.27 1161.41,419.01 "/>
   <path class="theme1_flags_en-svg-flags_en-svg-fil2" d="M223.19 1375.73c4.52,-1.73 599.9,-2.12 606.07,0.13l0.31 -419.27c-6.36,3.06 -13.99,9.26 -20.15,13.51l-549.05 379.25c-8.41,5.82 -31.65,20.18 -37.18,26.38z"/>
   <path class="theme1_flags_en-svg-flags_en-svg-fil2" d="M1764.74 1373.22l-602.65 -416.26 -0.24 417.21c54.57,0 599.97,2.33 602.89,-0.95z"/>
   <path class="theme1_flags_en-svg-flags_en-svg-fil0" d="M1.03 1375.85c5.52,-2.04 142.92,-2.07 148.05,-0.14l620.58 -429.36c8.53,-5.89 35.93,-22.79 41.19,-29.25 -47.03,-1.23 -96.3,-1 -143.37,-0.15 -8.7,0.16 -17.9,9.41 -25.26,14.5l-547.16 377.96c-13.63,9.43 -89.3,59.12 -94.03,66.44z"/>
   <path class="theme1_flags_en-svg-flags_en-svg-fil0" d="M1990.75 0.89l-0.56 -0.73 -148.54 0.05 -661.83 457.74c17.11,2.34 116.58,0.7 142.13,0.69 9.9,-0 17.74,-8.58 25.61,-14.02 7.97,-5.5 15.76,-10.88 23.82,-16.45l523.37 -361.47c8.91,-6.15 88.78,-63.03 96,-65.81z"/>
   <polygon class="theme1_flags_en-svg-flags_en-svg-fil2" points="-0,458.58 440.2,457.9 -0,154.37 "/>
   <polygon class="theme1_flags_en-svg-flags_en-svg-fil2" points="1990.61,458.58 1990.87,154.13 1550.83,458.1 "/>
   <polygon class="theme1_flags_en-svg-flags_en-svg-fil2" points="-0,1221.24 440.05,917.56 -0,917.02 "/>
   <polygon class="theme1_flags_en-svg-flags_en-svg-fil2" points="1990.43,1220.9 1990.82,1215.73 1990.77,917.02 1551.2,917.03 "/>
   <path class="theme1_flags_en-svg-flags_en-svg-fil0" d="M-0 103.06c7.84,3.97 63.83,43.76 76.47,52.49l383.61 264.92c7.63,5.27 51.47,37.66 57.92,38.14l144.83 -0.36 -661.89 -458.12 -0.94 -0.14 0 103.06z"/>
   <path class="theme1_flags_en-svg-flags_en-svg-fil0" d="M1991.56 1373.89c-1.49,-6.57 -1.49,-94.24 0,-100.69 -24.65,-18.22 -51.83,-35.97 -77.33,-53.58l-421.87 -291.31c-6.41,-4.43 -13.18,-11.26 -20.91,-11.35 -23.87,-0.31 -130.2,-1.17 -142.96,0.39 5.03,4.76 14.86,10.59 21,14.83l558.47 385.71c14.1,9.74 27.44,18.89 41.41,28.53 7,4.83 36.97,27.49 42.19,27.48z"/>
   <path class="theme1_flags_en-svg-flags_en-svg-fil3" d="M1990.61 458.58l0.24 90.72 -895.68 0c4.28,3.22 220.24,1.22 222.97,1.22 224.16,0 448.32,0 672.48,0l0 275.1 1.32 0.48c-1.68,-25.19 -0.31,-59.52 -0.31,-85.71l-0.65 -251.95c0,-36.38 2.01,-324.95 -0.12,-334.32l-0.26 304.45z"/>
   <path class="theme1_flags_en-svg-flags_en-svg-fil4" d="M1160.87 1376.01l607.42 -0.2 -3.55 -2.59c-2.92,3.28 -548.32,0.95 -602.89,0.95l0.24 -417.21c-0.78,0.01 -0.13,-1.19 -1.08,1.63l-0.13 417.42z"/>
   <path class="theme1_flags_en-svg-flags_en-svg-fil5" d="M895.8 1374.08l-0.15 2.01c11.06,-2.65 37.47,-0.66 50.18,-0.66 20.03,0 140.7,-1.42 149.64,0.55l0.3 -550.81c-2.19,3.03 -1.36,8.46 -1.35,15.24l-0.04 533.68 -198.58 0z"/>
  </g>
 </g>
</svg>
